# xmcd CD database file
#
# Track frame offsets:
#	150
#	28236
#	50784
#	86095
#	116185
#	149325
#	182824
#
# Disc length: 2825 seconds
#
# Revision: 0
# Processed by: cddbd v1.5.2PL0 Copyright (c) Steve Scherf et al.
# Submitted via: CDex 1.79
#
DISCID=6a0b0707
DTITLE=Cliff Smalls - Caravan
DYEAR=1979
DGENRE=Jazz
TTITLE0=Yellow Dog (Take 2)
TTITLE1=Secret Love
TTITLE2=The Man I Love
TTITLE3=Toneing Town
TTITLE4=Millie An Alixis' Blues
TTITLE5=Caravan
TTITLE6=Yellow Dog (Take 1)
EXTD=YEAR: 1979
EXTT0=
EXTT1=
EXTT2=
EXTT3=
EXTT4=
EXTT5=
EXTT6=
PLAYORDER=
